<svg width="1600" height="900" viewBox="0 0 1600 900" fill="none" xmlns="http://www.w3.org/2000/svg">
  <rect width="1600" height="900" fill="#0B1220"/>
  <rect x="0" y="0" width="1600" height="900" fill="url(#paint0_linear)"/>
  <circle cx="1320" cy="120" r="220" fill="url(#paint1_radial)" fill-opacity="0.6"/>
  <circle cx="260" cy="760" r="300" fill="url(#paint2_radial)" fill-opacity="0.45"/>
  <rect x="190" y="210" width="1220" height="480" rx="22" fill="rgba(255,255,255,0.06)" stroke="rgba(255,255,255,0.18)"/>
  <rect x="230" y="250" width="360" height="140" rx="12" fill="rgba(255,255,255,0.09)"/>
  <rect x="230" y="412" width="360" height="220" rx="12" fill="rgba(255,255,255,0.09)"/>
  <rect x="614" y="250" width="756" height="382" rx="12" fill="rgba(255,255,255,0.09)"/>
  <rect x="650" y="286" width="220" height="16" rx="8" fill="rgba(147,197,253,0.88)"/>
  <rect x="650" y="316" width="650" height="12" rx="6" fill="rgba(255,255,255,0.55)"/>
  <rect x="650" y="340" width="580" height="12" rx="6" fill="rgba(255,255,255,0.35)"/>
  <rect x="650" y="374" width="680" height="180" rx="10" fill="rgba(15,23,42,0.65)" stroke="rgba(255,255,255,0.1)"/>
  <path d="M690 520C750 460 810 502 870 470C930 438 990 470 1050 440C1110 410 1170 440 1230 420" stroke="#38BDF8" stroke-width="8" stroke-linecap="round"/>
  <defs>
    <linearGradient id="paint0_linear" x1="120" y1="40" x2="1500" y2="860" gradientUnits="userSpaceOnUse">
      <stop stop-color="#1E3A8A"/>
      <stop offset="0.55" stop-color="#1D4ED8"/>
      <stop offset="1" stop-color="#0F172A"/>
    </linearGradient>
    <radialGradient id="paint1_radial" cx="0" cy="0" r="1" gradientUnits="userSpaceOnUse" gradientTransform="translate(1320 120) rotate(90) scale(220)">
      <stop stop-color="#38BDF8"/>
      <stop offset="1" stop-color="#38BDF8" stop-opacity="0"/>
    </radialGradient>
    <radialGradient id="paint2_radial" cx="0" cy="0" r="1" gradientUnits="userSpaceOnUse" gradientTransform="translate(260 760) rotate(90) scale(300)">
      <stop stop-color="#60A5FA"/>
      <stop offset="1" stop-color="#60A5FA" stop-opacity="0"/>
    </radialGradient>
  </defs>
</svg>
